<?xml version="1.0" encoding="UTF-8" standalone="no"?><svg xmlns="http://www.w3.org/2000/svg" xmlns:xlink="http://www.w3.org/1999/xlink" contentScriptType="application/ecmascript" contentStyleType="text/css" height="206px" preserveAspectRatio="none" style="width:567px;height:206px;" version="1.1" viewBox="0 0 567 206" width="567px" zoomAndPan="magnify"><defs><filter height="300%" id="fmsf10jptqibz" width="300%" x="-1" y="-1"><feGaussianBlur result="blurOut" stdDeviation="2.0"/><feColorMatrix in="blurOut" result="blurOut2" type="matrix" values="0 0 0 0 0 0 0 0 0 0 0 0 0 0 0 0 0 0 .4 0"/><feOffset dx="4.0" dy="4.0" in="blurOut2" result="blurOut3"/><feBlend in="SourceGraphic" in2="blurOut3" mode="normal"/></filter></defs><g><!--MD5=[9f014cdd3fcd92b1d2dc609474de6942]
class Anzeige--><rect fill="#FEFECE" filter="url(#fmsf10jptqibz)" height="112.0234" id="Anzeige" style="stroke: #A80036; stroke-width: 1.5;" width="90" x="311" y="8"/><ellipse cx="330.5" cy="24" fill="#ADD1B2" rx="11" ry="11" style="stroke: #A80036; stroke-width: 1.0;"/><path d="M333.4688,29.6406 Q332.8906,29.9375 332.25,30.0781 Q331.6094,30.2344 330.9063,30.2344 Q328.4063,30.2344 327.0781,28.5938 Q325.7656,26.9375 325.7656,23.8125 Q325.7656,20.6875 327.0781,19.0313 Q328.4063,17.375 330.9063,17.375 Q331.6094,17.375 332.25,17.5313 Q332.9063,17.6875 333.4688,17.9844 L333.4688,20.7031 Q332.8438,20.125 332.25,19.8594 Q331.6563,19.5781 331.0313,19.5781 Q329.6875,19.5781 329,20.6563 Q328.3125,21.7188 328.3125,23.8125 Q328.3125,25.9063 329,26.9844 Q329.6875,28.0469 331.0313,28.0469 Q331.6563,28.0469 332.25,27.7813 Q332.8438,27.5 333.4688,26.9219 L333.4688,29.6406 Z "/><text fill="#000000" font-family="sans-serif" font-size="12" lengthAdjust="spacingAndGlyphs" textLength="48" x="345.5" y="28.1543">Anzeige</text><line style="stroke: #A80036; stroke-width: 1.5;" x1="312" x2="400" y1="40" y2="40"/><text fill="#000000" font-family="sans-serif" font-size="11" lengthAdjust="spacingAndGlyphs" textLength="56" x="317" y="54.2104">AnzeigeNr</text><text fill="#000000" font-family="sans-serif" font-size="11" lengthAdjust="spacingAndGlyphs" textLength="63" x="317" y="67.0151">BenutzerNr</text><text fill="#000000" font-family="sans-serif" font-size="11" lengthAdjust="spacingAndGlyphs" textLength="29" x="317" y="79.8198">Preis</text><text fill="#000000" font-family="sans-serif" font-size="11" lengthAdjust="spacingAndGlyphs" textLength="24" x="317" y="92.6245">Titel</text><text fill="#000000" font-family="sans-serif" font-size="11" lengthAdjust="spacingAndGlyphs" textLength="78" x="317" y="105.4292">Beschreibung</text><line style="stroke: #A80036; stroke-width: 1.5;" x1="312" x2="400" y1="112.0234" y2="112.0234"/><!--MD5=[0c8199344457f6d35f1c8b4c6eadcf3f]
class Benutzer--><rect fill="#FEFECE" filter="url(#fmsf10jptqibz)" height="86.4141" id="Benutzer" style="stroke: #A80036; stroke-width: 1.5;" width="95" x="461" y="109"/><ellipse cx="479.6" cy="125" fill="#ADD1B2" rx="11" ry="11" style="stroke: #A80036; stroke-width: 1.0;"/><path d="M482.5688,130.6406 Q481.9906,130.9375 481.35,131.0781 Q480.7094,131.2344 480.0063,131.2344 Q477.5063,131.2344 476.1781,129.5938 Q474.8656,127.9375 474.8656,124.8125 Q474.8656,121.6875 476.1781,120.0313 Q477.5063,118.375 480.0063,118.375 Q480.7094,118.375 481.35,118.5313 Q482.0063,118.6875 482.5688,118.9844 L482.5688,121.7031 Q481.9438,121.125 481.35,120.8594 Q480.7563,120.5781 480.1313,120.5781 Q478.7875,120.5781 478.1,121.6563 Q477.4125,122.7188 477.4125,124.8125 Q477.4125,126.9063 478.1,127.9844 Q478.7875,129.0469 480.1313,129.0469 Q480.7563,129.0469 481.35,128.7813 Q481.9438,128.5 482.5688,127.9219 L482.5688,130.6406 Z "/><text fill="#000000" font-family="sans-serif" font-size="12" lengthAdjust="spacingAndGlyphs" textLength="55" x="494.4" y="129.1543">Benutzer</text><line style="stroke: #A80036; stroke-width: 1.5;" x1="462" x2="555" y1="141" y2="141"/><text fill="#000000" font-family="sans-serif" font-size="11" lengthAdjust="spacingAndGlyphs" textLength="63" x="467" y="155.2104">BenutzerNr</text><text fill="#000000" font-family="sans-serif" font-size="11" lengthAdjust="spacingAndGlyphs" textLength="83" x="467" y="168.0151">BenutzerName</text><text fill="#000000" font-family="sans-serif" font-size="11" lengthAdjust="spacingAndGlyphs" textLength="53" x="467" y="180.8198">Passwort</text><line style="stroke: #A80036; stroke-width: 1.5;" x1="462" x2="555" y1="187.4141" y2="187.4141"/><!--MD5=[0dbfd58686565b47c5d7dbff980d922c]
class Warenkorb--><rect fill="#FEFECE" filter="url(#fmsf10jptqibz)" height="73.6094" id="Warenkorb" style="stroke: #A80036; stroke-width: 1.5;" width="100" x="6" y="81"/><ellipse cx="21" cy="97" fill="#ADD1B2" rx="11" ry="11" style="stroke: #A80036; stroke-width: 1.0;"/><path d="M23.9688,102.6406 Q23.3906,102.9375 22.75,103.0781 Q22.1094,103.2344 21.4063,103.2344 Q18.9063,103.2344 17.5781,101.5938 Q16.2656,99.9375 16.2656,96.8125 Q16.2656,93.6875 17.5781,92.0313 Q18.9063,90.375 21.4063,90.375 Q22.1094,90.375 22.75,90.5313 Q23.4063,90.6875 23.9688,90.9844 L23.9688,93.7031 Q23.3438,93.125 22.75,92.8594 Q22.1563,92.5781 21.5313,92.5781 Q20.1875,92.5781 19.5,93.6563 Q18.8125,94.7188 18.8125,96.8125 Q18.8125,98.9063 19.5,99.9844 Q20.1875,101.0469 21.5313,101.0469 Q22.1563,101.0469 22.75,100.7813 Q23.3438,100.5 23.9688,99.9219 L23.9688,102.6406 Z "/><text fill="#000000" font-family="sans-serif" font-size="12" lengthAdjust="spacingAndGlyphs" textLength="68" x="35" y="101.1543">Warenkorb</text><line style="stroke: #A80036; stroke-width: 1.5;" x1="7" x2="105" y1="113" y2="113"/><text fill="#000000" font-family="sans-serif" font-size="11" lengthAdjust="spacingAndGlyphs" textLength="73" x="12" y="127.2104">WarenkorbNr</text><text fill="#000000" font-family="sans-serif" font-size="11" lengthAdjust="spacingAndGlyphs" textLength="63" x="12" y="140.0151">BenutzerNr</text><line style="stroke: #A80036; stroke-width: 1.5;" x1="7" x2="105" y1="146.6094" y2="146.6094"/><!--MD5=[887f71c9a2ead11372fca87960930817]
class Kauf--><rect fill="#FEFECE" filter="url(#fmsf10jptqibz)" height="86.4141" id="Kauf" style="stroke: #A80036; stroke-width: 1.5;" width="85" x="166" y="67"/><ellipse cx="192.7" cy="83" fill="#ADD1B2" rx="11" ry="11" style="stroke: #A80036; stroke-width: 1.0;"/><path d="M195.6688,88.6406 Q195.0906,88.9375 194.45,89.0781 Q193.8094,89.2344 193.1063,89.2344 Q190.6063,89.2344 189.2781,87.5938 Q187.9656,85.9375 187.9656,82.8125 Q187.9656,79.6875 189.2781,78.0313 Q190.6063,76.375 193.1063,76.375 Q193.8094,76.375 194.45,76.5313 Q195.1063,76.6875 195.6688,76.9844 L195.6688,79.7031 Q195.0438,79.125 194.45,78.8594 Q193.8563,78.5781 193.2313,78.5781 Q191.8875,78.5781 191.2,79.6563 Q190.5125,80.7188 190.5125,82.8125 Q190.5125,84.9063 191.2,85.9844 Q191.8875,87.0469 193.2313,87.0469 Q193.8563,87.0469 194.45,86.7813 Q195.0438,86.5 195.6688,85.9219 L195.6688,88.6406 Z "/><text fill="#000000" font-family="sans-serif" font-size="12" lengthAdjust="spacingAndGlyphs" textLength="27" x="209.3" y="87.1543">Kauf</text><line style="stroke: #A80036; stroke-width: 1.5;" x1="167" x2="250" y1="99" y2="99"/><text fill="#000000" font-family="sans-serif" font-size="11" lengthAdjust="spacingAndGlyphs" textLength="38" x="172" y="113.2104">KaufNr</text><text fill="#000000" font-family="sans-serif" font-size="11" lengthAdjust="spacingAndGlyphs" textLength="73" x="172" y="126.0151">WarenkorbNr</text><text fill="#000000" font-family="sans-serif" font-size="11" lengthAdjust="spacingAndGlyphs" textLength="56" x="172" y="138.8198">AnzeigeNr</text><line style="stroke: #A80036; stroke-width: 1.5;" x1="167" x2="250" y1="145.4141" y2="145.4141"/><ellipse cx="208.5" cy="30" fill="#000000" rx="2" ry="2" style="stroke: none; stroke-width: 1.0;"/><!--MD5=[bc23dcca7808c5303e8bad5a2be59613]
link Anzeige to Benutzer--><path d="M401.34,89.93 C420.07,100.88 441.89,113.64 460.86,124.73 " fill="none" id="Anzeige-Benutzer" style="stroke: #A80036; stroke-width: 1.0;"/><text fill="#000000" font-family="sans-serif" font-size="13" lengthAdjust="spacingAndGlyphs" textLength="7" x="409.1239" y="107.3335">*</text><text fill="#000000" font-family="sans-serif" font-size="13" lengthAdjust="spacingAndGlyphs" textLength="8" x="444.9526" y="133.7481">1</text><!--MD5=[ffde5c7af3c0f8a93b8506737b79ebaa]
link Warenkorb to Benutzer--><path d="M106.04,147.1 C124.23,156.34 145.45,165.35 166,170 C269.36,193.39 394.61,175.41 460.98,162.38 " fill="none" id="Warenkorb-Benutzer" style="stroke: #A80036; stroke-width: 1.0;"/><text fill="#000000" font-family="sans-serif" font-size="13" lengthAdjust="spacingAndGlyphs" textLength="8" x="113.9771" y="164.581">1</text><text fill="#000000" font-family="sans-serif" font-size="13" lengthAdjust="spacingAndGlyphs" textLength="8" x="445.091" y="177.1632">1</text><!--MD5=[a589ca6a5f94ff743bdb319a667becd9]
link Warenkorb to apoint9--><path d="M106.08,84.95 C124.53,73.05 145.92,59.89 166,49 C181.6,40.54 201.67,32.34 206.45,30.42 " fill="none" id="Warenkorb-apoint9" style="stroke: #A80036; stroke-width: 1.0;"/><text fill="#000000" font-family="sans-serif" font-size="13" lengthAdjust="spacingAndGlyphs" textLength="7" x="113.9496" y="93.3027">*</text><!--MD5=[e26fdc4bf3f3adc50ee052b3e7ec2e4e]
link apoint9 to Anzeige--><path d="M210.76,30.29 C219.48,32.33 271.75,44.55 310.88,53.69 " fill="none" id="apoint9-Anzeige" style="stroke: #A80036; stroke-width: 1.0;"/><text fill="#000000" font-family="sans-serif" font-size="13" lengthAdjust="spacingAndGlyphs" textLength="7" x="296.1312" y="65.3178">*</text><!--MD5=[938ea10e5e9d52d1b713b71c63969570]
link apoint9 to Kauf--><path d="M208.5,32.02 C208.5,43.64 208.5,55.26 208.5,66.88 " fill="none" id="apoint9-Kauf" style="stroke: #A80036; stroke-width: 1.0; stroke-dasharray: 7.0,7.0;"/><!--MD5=[620a221224ea122cea06dc0fe0186e75]
@startuml

left to right direction

class Anzeige{
    AnzeigeNr
    BenutzerNr
    Preis
    Titel
    Beschreibung
}

class Benutzer{
    BenutzerNr
    BenutzerName
    Passwort
}

class Warenkorb{
    WarenkorbNr
    BenutzerNr
}
Anzeige "*" - - "1" Benutzer

Warenkorb "1" - - "1"Benutzer

Warenkorb"*" - - "*"Anzeige


(Warenkorb, Anzeige) ... Kauf

class Kauf{
    KaufNr
    WarenkorbNr
    AnzeigeNr
}

@enduml

PlantUML version 1.2019.12(Sun Nov 03 10:24:54 GMT 2019)
(APACHE source distribution)
Java Runtime: OpenJDK Runtime Environment
JVM: OpenJDK 64-Bit Server VM
Java Version: 1.8.0_252-b09
Operating System: Linux
Default Encoding: UTF-8
Language: en
Country: US
--></g></svg>