<?xml version="1.0" encoding="UTF-8" standalone="no"?><svg xmlns="http://www.w3.org/2000/svg" xmlns:xlink="http://www.w3.org/1999/xlink" contentScriptType="application/ecmascript" contentStyleType="text/css" height="167px" preserveAspectRatio="none" style="width:724px;height:167px;" version="1.1" viewBox="0 0 724 167" width="724px" zoomAndPan="magnify"><defs><filter height="300%" id="fcmawn9vkivaw" width="300%" x="-1" y="-1"><feGaussianBlur result="blurOut" stdDeviation="2.0"/><feColorMatrix in="blurOut" result="blurOut2" type="matrix" values="0 0 0 0 0 0 0 0 0 0 0 0 0 0 0 0 0 0 .4 0"/><feOffset dx="4.0" dy="4.0" in="blurOut2" result="blurOut3"/><feBlend in="SourceGraphic" in2="blurOut3" mode="normal"/></filter></defs><g><!--MD5=[09ce52be0ee7de43c61b6e2d59bf108b]
class Person--><rect fill="#FEFECE" filter="url(#fcmawn9vkivaw)" height="86.4141" id="Person" style="stroke: #A80036; stroke-width: 1.5;" width="106" x="6" y="12"/><ellipse cx="35.4" cy="28" fill="#A9DCDF" rx="11" ry="11" style="stroke: #A80036; stroke-width: 1.0;"/><path d="M35.5094,23.3438 L34.3531,28.4219 L36.6813,28.4219 L35.5094,23.3438 Z M34.025,21.1094 L37.0094,21.1094 L40.3688,33.5 L37.9156,33.5 L37.15,30.4375 L33.8688,30.4375 L33.1188,33.5 L30.6813,33.5 L34.025,21.1094 Z "/><text fill="#000000" font-family="sans-serif" font-size="12" font-style="italic" lengthAdjust="spacingAndGlyphs" textLength="42" x="52.6" y="32.1543">Person</text><line style="stroke: #A80036; stroke-width: 1.5;" x1="7" x2="111" y1="44" y2="44"/><text fill="#000000" font-family="sans-serif" font-size="11" lengthAdjust="spacingAndGlyphs" textLength="61" x="12" y="58.2104">user_ID:int</text><text fill="#000000" font-family="sans-serif" font-size="11" lengthAdjust="spacingAndGlyphs" textLength="70" x="12" y="71.0151">name:String</text><text fill="#000000" font-family="sans-serif" font-size="11" lengthAdjust="spacingAndGlyphs" textLength="94" x="12" y="83.8198">password:String</text><line style="stroke: #A80036; stroke-width: 1.5;" x1="7" x2="111" y1="90.4141" y2="90.4141"/><!--MD5=[9f322016a481016588f20b0bec593137]
class Anbieter--><rect fill="#FEFECE" filter="url(#fcmawn9vkivaw)" height="48" id="Anbieter" style="stroke: #A80036; stroke-width: 1.5;" width="85" x="172" y="108"/><ellipse cx="187" cy="124" fill="#ADD1B2" rx="11" ry="11" style="stroke: #A80036; stroke-width: 1.0;"/><path d="M189.9688,129.6406 Q189.3906,129.9375 188.75,130.0781 Q188.1094,130.2344 187.4063,130.2344 Q184.9063,130.2344 183.5781,128.5938 Q182.2656,126.9375 182.2656,123.8125 Q182.2656,120.6875 183.5781,119.0313 Q184.9063,117.375 187.4063,117.375 Q188.1094,117.375 188.75,117.5313 Q189.4063,117.6875 189.9688,117.9844 L189.9688,120.7031 Q189.3438,120.125 188.75,119.8594 Q188.1563,119.5781 187.5313,119.5781 Q186.1875,119.5781 185.5,120.6563 Q184.8125,121.7188 184.8125,123.8125 Q184.8125,125.9063 185.5,126.9844 Q186.1875,128.0469 187.5313,128.0469 Q188.1563,128.0469 188.75,127.7813 Q189.3438,127.5 189.9688,126.9219 L189.9688,129.6406 Z "/><text fill="#000000" font-family="sans-serif" font-size="12" lengthAdjust="spacingAndGlyphs" textLength="53" x="201" y="128.1543">Anbieter</text><line style="stroke: #A80036; stroke-width: 1.5;" x1="173" x2="256" y1="140" y2="140"/><line style="stroke: #A80036; stroke-width: 1.5;" x1="173" x2="256" y1="148" y2="148"/><!--MD5=[db6d18d8099558415abc41d00477ab92]
class Admin--><rect fill="#FEFECE" filter="url(#fcmawn9vkivaw)" height="48" id="Admin" style="stroke: #A80036; stroke-width: 1.5;" width="70" x="317" y="34"/><ellipse cx="332" cy="50" fill="#ADD1B2" rx="11" ry="11" style="stroke: #A80036; stroke-width: 1.0;"/><path d="M334.9688,55.6406 Q334.3906,55.9375 333.75,56.0781 Q333.1094,56.2344 332.4063,56.2344 Q329.9063,56.2344 328.5781,54.5938 Q327.2656,52.9375 327.2656,49.8125 Q327.2656,46.6875 328.5781,45.0313 Q329.9063,43.375 332.4063,43.375 Q333.1094,43.375 333.75,43.5313 Q334.4063,43.6875 334.9688,43.9844 L334.9688,46.7031 Q334.3438,46.125 333.75,45.8594 Q333.1563,45.5781 332.5313,45.5781 Q331.1875,45.5781 330.5,46.6563 Q329.8125,47.7188 329.8125,49.8125 Q329.8125,51.9063 330.5,52.9844 Q331.1875,54.0469 332.5313,54.0469 Q333.1563,54.0469 333.75,53.7813 Q334.3438,53.5 334.9688,52.9219 L334.9688,55.6406 Z "/><text fill="#000000" font-family="sans-serif" font-size="12" lengthAdjust="spacingAndGlyphs" textLength="38" x="346" y="54.1543">Admin</text><line style="stroke: #A80036; stroke-width: 1.5;" x1="318" x2="386" y1="66" y2="66"/><line style="stroke: #A80036; stroke-width: 1.5;" x1="318" x2="386" y1="74" y2="74"/><!--MD5=[bee9f17e822fada660461d342c701f3a]
class Kunde--><rect fill="#FEFECE" filter="url(#fcmawn9vkivaw)" height="48" id="Kunde" style="stroke: #A80036; stroke-width: 1.5;" width="71" x="447" y="34"/><ellipse cx="462" cy="50" fill="#ADD1B2" rx="11" ry="11" style="stroke: #A80036; stroke-width: 1.0;"/><path d="M464.9688,55.6406 Q464.3906,55.9375 463.75,56.0781 Q463.1094,56.2344 462.4063,56.2344 Q459.9063,56.2344 458.5781,54.5938 Q457.2656,52.9375 457.2656,49.8125 Q457.2656,46.6875 458.5781,45.0313 Q459.9063,43.375 462.4063,43.375 Q463.1094,43.375 463.75,43.5313 Q464.4063,43.6875 464.9688,43.9844 L464.9688,46.7031 Q464.3438,46.125 463.75,45.8594 Q463.1563,45.5781 462.5313,45.5781 Q461.1875,45.5781 460.5,46.6563 Q459.8125,47.7188 459.8125,49.8125 Q459.8125,51.9063 460.5,52.9844 Q461.1875,54.0469 462.5313,54.0469 Q463.1563,54.0469 463.75,53.7813 Q464.3438,53.5 464.9688,52.9219 L464.9688,55.6406 Z "/><text fill="#000000" font-family="sans-serif" font-size="12" lengthAdjust="spacingAndGlyphs" textLength="39" x="476" y="54.1543">Kunde</text><line style="stroke: #A80036; stroke-width: 1.5;" x1="448" x2="517" y1="66" y2="66"/><line style="stroke: #A80036; stroke-width: 1.5;" x1="448" x2="517" y1="74" y2="74"/><!--MD5=[d3a6d3f10914385dab4d7a758b38604b]
class AuktionsProdukt--><rect fill="#FEFECE" filter="url(#fcmawn9vkivaw)" height="112.0234" id="AuktionsProdukt" style="stroke: #A80036; stroke-width: 1.5;" width="135" x="578" y="41"/><ellipse cx="593" cy="57" fill="#ADD1B2" rx="11" ry="11" style="stroke: #A80036; stroke-width: 1.0;"/><path d="M595.9688,62.6406 Q595.3906,62.9375 594.75,63.0781 Q594.1094,63.2344 593.4063,63.2344 Q590.9063,63.2344 589.5781,61.5938 Q588.2656,59.9375 588.2656,56.8125 Q588.2656,53.6875 589.5781,52.0313 Q590.9063,50.375 593.4063,50.375 Q594.1094,50.375 594.75,50.5313 Q595.4063,50.6875 595.9688,50.9844 L595.9688,53.7031 Q595.3438,53.125 594.75,52.8594 Q594.1563,52.5781 593.5313,52.5781 Q592.1875,52.5781 591.5,53.6563 Q590.8125,54.7188 590.8125,56.8125 Q590.8125,58.9063 591.5,59.9844 Q592.1875,61.0469 593.5313,61.0469 Q594.1563,61.0469 594.75,60.7813 Q595.3438,60.5 595.9688,59.9219 L595.9688,62.6406 Z "/><text fill="#000000" font-family="sans-serif" font-size="12" lengthAdjust="spacingAndGlyphs" textLength="103" x="607" y="61.1543">AuktionsProdukt</text><line style="stroke: #A80036; stroke-width: 1.5;" x1="579" x2="712" y1="73" y2="73"/><text fill="#000000" font-family="sans-serif" font-size="11" lengthAdjust="spacingAndGlyphs" textLength="78" x="584" y="87.2104">product_ID:int</text><text fill="#000000" font-family="sans-serif" font-size="11" lengthAdjust="spacingAndGlyphs" textLength="74" x="584" y="100.0151">seller: String</text><text fill="#000000" font-family="sans-serif" font-size="11" lengthAdjust="spacingAndGlyphs" textLength="82" x="584" y="112.8198">highestBid: int</text><text fill="#000000" font-family="sans-serif" font-size="11" lengthAdjust="spacingAndGlyphs" textLength="121" x="584" y="125.6245">highestBidder: String</text><text fill="#000000" font-family="sans-serif" font-size="11" lengthAdjust="spacingAndGlyphs" textLength="108" x="584" y="138.4292">sellDate: DateTime</text><line style="stroke: #A80036; stroke-width: 1.5;" x1="579" x2="712" y1="145.0234" y2="145.0234"/><!--MD5=[6d3a316ef05647f429ded72021ea8df8]
reverse link Person to Anbieter--><path d="M130.67,90.45 C144.81,97.54 159.23,104.77 171.99,111.18 " fill="none" id="Person&lt;-Anbieter" style="stroke: #A80036; stroke-width: 1.0;"/><polygon fill="none" points="127.13,96.51,112.4,81.28,133.41,83.99,127.13,96.51" style="stroke: #A80036; stroke-width: 1.0;"/><!--MD5=[f0120b5cff7f3ae9e9429a092ae52c92]
reverse link Person to Kunde--><path d="M131.51,33.13 C198.17,15.88 300.08,-2.45 387,16 C407.72,20.4 429.42,29.66 446.79,38.38 " fill="none" id="Person&lt;-Kunde" style="stroke: #A80036; stroke-width: 1.0;"/><polygon fill="none" points="133.15,39.94,112.01,38.4,129.49,26.42,133.15,39.94" style="stroke: #A80036; stroke-width: 1.0;"/><!--MD5=[e4eb34366b549f316bd55ff4416cda69]
reverse link Person to Admin--><path d="M132.24,55.74 C191.09,56.35 271.59,57.18 316.72,57.65 " fill="none" id="Person&lt;-Admin" style="stroke: #A80036; stroke-width: 1.0;"/><polygon fill="none" points="131.95,62.74,112.02,55.54,132.1,48.74,131.95,62.74" style="stroke: #A80036; stroke-width: 1.0;"/><!--MD5=[1f25ea0599463744081d56348e129555]
link Anbieter to Admin--><path d="M257.26,109.19 C276.39,98.75 298.78,86.52 316.87,76.64 " fill="none" id="Anbieter-Admin" style="stroke: #A80036; stroke-width: 1.0;"/><text fill="#000000" font-family="sans-serif" font-size="13" lengthAdjust="spacingAndGlyphs" textLength="7" x="264.9218" y="118.7322">*</text><text fill="#000000" font-family="sans-serif" font-size="13" lengthAdjust="spacingAndGlyphs" textLength="8" x="300.7994" y="94.112">1</text><!--MD5=[97e1840769a5c032bc3b45929142db9c]
link Admin to Kunde--><path d="M387.1,58 C405.54,58 428.26,58 446.79,58 " fill="none" id="Admin-Kunde" style="stroke: #A80036; stroke-width: 1.0;"/><text fill="#000000" font-family="sans-serif" font-size="13" lengthAdjust="spacingAndGlyphs" textLength="8" x="395.1644" y="71.6275">1</text><text fill="#000000" font-family="sans-serif" font-size="13" lengthAdjust="spacingAndGlyphs" textLength="7" x="432.0705" y="71.5565">*</text><!--MD5=[fd3133b33866d5d506761208200bf39e]
link Kunde to AuktionsProdukt--><path d="M518.04,66.37 C535.5,70.6 557.3,75.88 577.86,80.86 " fill="none" id="Kunde-AuktionsProdukt" style="stroke: #A80036; stroke-width: 1.0;"/><text fill="#000000" font-family="sans-serif" font-size="13" lengthAdjust="spacingAndGlyphs" textLength="8" x="526.1951" y="81.7238">1</text><text fill="#000000" font-family="sans-serif" font-size="13" lengthAdjust="spacingAndGlyphs" textLength="7" x="563.0791" y="91.9879">*</text><!--MD5=[e27ea85c09a908c02021f6bed14811a3]
link Anbieter to AuktionsProdukt--><path d="M257.02,128.61 C331.46,122.54 488.2,109.75 577.84,102.44 " fill="none" id="Anbieter-AuktionsProdukt" style="stroke: #A80036; stroke-width: 1.0;"/><text fill="#000000" font-family="sans-serif" font-size="13" lengthAdjust="spacingAndGlyphs" textLength="8" x="265.0156" y="141.3947">1</text><text fill="#000000" font-family="sans-serif" font-size="13" lengthAdjust="spacingAndGlyphs" textLength="7" x="563.0569" y="115.9282">*</text><!--MD5=[dcad020bdb592cea452b8a0c3cb4cbb5]
@startuml

left to right direction

abstract class Person{
user_ID:int
name:String
password:String
}

class Anbieter

class Admin

class Kunde

class AuktionsProdukt{
product_ID:int
seller: String
highestBid: int
highestBidder: String
sellDate: DateTime
}

Person <|- - Anbieter
Person <|- - Kunde
Person <|- - Admin
Anbieter "*" - - "1" Admin
Admin "1" - - "*" Kunde
Kunde "1" - - "*" AuktionsProdukt
Anbieter "1" - - "*" AuktionsProdukt
@enduml

PlantUML version 1.2019.12(Sun Nov 03 10:24:54 GMT 2019)
(APACHE source distribution)
Java Runtime: OpenJDK Runtime Environment
JVM: OpenJDK 64-Bit Server VM
Java Version: 1.8.0_252-b09
Operating System: Linux
Default Encoding: UTF-8
Language: en
Country: US
--></g></svg>